# xmcd
#
# Track frame offsets:
#	150
#	16230
#	33222
#	50097
#	64250
#	74505
#	94162
#	111840
#	124622
#
# Disc length: 1848 seconds
#
# Revision: 0
# Processed by: cddbd v1.4PL0 Copyright (c) Steve Scherf et al.
# Submitted via: EasyCDDAExtractor 4.5.2.1
#
DISCID=7a073609
DTITLE=Bayou Lagniappe - Country Rockin'
DYEAR=1996
DGENRE=Country
TTITLE0=Country Rockin'
TTITLE1=I Don't Know If he Even Cares
TTITLE2=That Kiss
TTITLE3=Trust In Your Love
TTITLE4=Out With The Boys
TTITLE5=Love Me Or Leave Me
TTITLE6=Don't Cheat Around On Your Baby
TTITLE7=Sadness Is Here To Stay
TTITLE8=Trust In Your Love (Acoustic)
EXTD=
EXTT0=
EXTT1=
EXTT2=
EXTT3=
EXTT4=
EXTT5=
EXTT6=
EXTT7=
EXTT8=
PLAYORDER=
